<svg width="30" height="30" viewBox="0 0 30 30" fill="none" xmlns="http://www.w3.org/2000/svg">
<path d="M28.6396 15.0001H25.257C24.6609 14.9988 24.0808 15.1928 23.6054 15.5524C23.13 15.9121 22.7855 16.4175 22.6245 16.9914L19.4193 28.394C19.3986 28.4649 19.3555 28.5271 19.2965 28.5714C19.2375 28.6156 19.1657 28.6396 19.0919 28.6396C19.0181 28.6396 18.9464 28.6156 18.8873 28.5714C18.8283 28.5271 18.7852 28.4649 18.7646 28.394L11.2356 1.60613C11.2149 1.5353 11.1719 1.47308 11.1128 1.42881C11.0538 1.38455 10.982 1.36062 10.9082 1.36062C10.8345 1.36062 10.7627 1.38455 10.7037 1.42881C10.6446 1.47308 10.6016 1.5353 10.5809 1.60613L7.37562 13.0087C7.21531 13.5804 6.87284 14.0842 6.40021 14.4436C5.92758 14.803 5.3506 14.9984 4.75684 15.0001H1.36062" stroke="#71717A" stroke-width="1.33" stroke-linecap="round" stroke-linejoin="round"/>
</svg>
