<svg width="30" height="27" viewBox="0 0 30 27" fill="none" xmlns="http://www.w3.org/2000/svg">
<path d="M22.9523 25.653C22.9523 22.7879 21.8142 20.0402 19.7883 18.0143C17.7624 15.9885 15.0147 14.8503 12.1497 14.8503M12.1497 14.8503C9.28463 14.8503 6.53694 15.9885 4.51105 18.0143C2.48516 20.0402 1.34703 22.7879 1.34703 25.653M12.1497 14.8503C15.8785 14.8503 18.9013 11.8275 18.9013 8.09868C18.9013 4.36985 15.8785 1.34703 12.1497 1.34703C8.42084 1.34703 5.39802 4.36985 5.39802 8.09868C5.39802 11.8275 8.42084 14.8503 12.1497 14.8503ZM28.3537 24.3026C28.3537 19.752 25.653 15.5254 22.9524 13.4999C23.8401 12.8339 24.55 11.9593 25.0191 10.9536C25.4883 9.94783 25.7023 8.84193 25.6423 7.73376C25.5822 6.62558 25.2498 5.54931 24.6747 4.60018C24.0995 3.65105 23.2993 2.85834 22.3447 2.2922" stroke="#71717A" stroke-width="1.33" stroke-linecap="round" stroke-linejoin="round"/>
</svg>
